<svg width="252" height="33" viewBox="0 0 252 33" fill="none" xmlns="http://www.w3.org/2000/svg">
<rect width="2.6" height="33" rx="1.3" fill="#D8D8D8"/>
<rect x="4.59998" y="3.5" width="2.6" height="26" rx="1.3" fill="#D8D8D8"/>
<rect x="9.20001" y="2" width="2.6" height="29" rx="1.3" fill="#D8D8D8"/>
<rect x="13.8" y="13.5" width="2.6" height="6" rx="1.3" fill="#D8D8D8"/>
<rect x="18.4" y="8.5" width="2.6" height="16" rx="1.3" fill="#D8D8D8"/>
<rect x="23" y="11" width="2.6" height="11" rx="1.3" fill="#D8D8D8"/>
<rect x="27.6" y="13" width="2.6" height="7" rx="1.3" fill="#D8D8D8"/>
<rect x="32.2" y="2.5" width="2.6" height="28" rx="1.3" fill="#D8D8D8"/>
<rect x="36.8" y="6" width="2.6" height="21" rx="1.3" fill="#D8D8D8"/>
<rect x="41.4" y="3" width="2.6" height="27" rx="1.3" fill="#D8D8D8"/>
<rect x="46" y="6" width="2.6" height="21" rx="1.3" fill="#D8D8D8"/>
<rect x="50.6" y="5" width="2.6" height="23" rx="1.3" fill="#D8D8D8"/>
<rect x="55.2" y="3.5" width="2.6" height="26" rx="1.3" fill="#D8D8D8"/>
<rect x="59.8" y="1.5" width="2.6" height="30" rx="1.3" fill="#D8D8D8"/>
<rect x="64.4" y="10.5" width="2.6" height="12" rx="1.3" fill="#D8D8D8"/>
<rect x="69" y="7" width="2.6" height="19" rx="1.3" fill="#D8D8D8"/>
<rect x="73.6" y="4.5" width="2.6" height="24" rx="1.3" fill="#D8D8D8"/>
<rect x="78.2" y="1.5" width="2.6" height="30" rx="1.3" fill="#D8D8D8"/>
<rect x="82.8" y="6.5" width="2.6" height="20" rx="1.3" fill="#D8D8D8"/>
<rect x="87.4" y="5" width="2.6" height="23" rx="1.3" fill="#D8D8D8"/>
<rect x="92" y="2.5" width="2.6" height="28" rx="1.3" fill="#D8D8D8"/>
<rect x="96.6" y="13" width="2.6" height="7" rx="1.3" fill="#D8D8D8"/>
<rect x="101.2" width="2.6" height="33" rx="1.3" fill="#D8D8D8"/>
<rect x="105.8" y="14.5" width="2.6" height="4" rx="1.3" fill="#D8D8D8"/>
<rect x="110.4" y="8.5" width="2.6" height="16" rx="1.3" fill="#D8D8D8"/>
<rect x="115" y="0.5" width="2.6" height="32" rx="1.3" fill="#D8D8D8"/>
<rect x="119.6" y="2.5" width="2.6" height="28" rx="1.3" fill="#D8D8D8"/>
<rect x="124.2" y="3.5" width="2.6" height="26" rx="1.3" fill="#D8D8D8"/>
<rect x="128.8" y="3" width="2.6" height="27" rx="1.3" fill="#D8D8D8"/>
<rect x="133.4" y="1.5" width="2.6" height="30" rx="1.3" fill="#D8D8D8"/>
<rect x="138" width="2.6" height="33" rx="1.3" fill="#D8D8D8"/>
<rect x="142.6" y="3" width="2.6" height="27" rx="1.3" fill="#D8D8D8"/>
<rect x="147.2" y="1.5" width="2.6" height="30" rx="1.3" fill="#D8D8D8"/>
<rect x="151.8" y="4" width="2.6" height="25" rx="1.3" fill="#D8D8D8"/>
<rect x="156.4" y="1" width="2.6" height="31" rx="1.3" fill="#D8D8D8"/>
<rect x="161" y="6.5" width="2.6" height="20" rx="1.3" fill="#D8D8D8"/>
<rect x="165.6" y="12" width="2.6" height="9" rx="1.3" fill="#D8D8D8"/>
<rect x="170.2" y="8" width="2.6" height="17" rx="1.3" fill="#D8D8D8"/>
<rect x="174.8" y="4.5" width="2.6" height="24" rx="1.3" fill="#D8D8D8"/>
<rect x="179.4" y="1" width="2.6" height="31" rx="1.3" fill="#D8D8D8"/>
<rect x="184" width="2.6" height="33" rx="1.3" fill="#D8D8D8"/>
<rect x="188.6" y="1.5" width="2.6" height="30" rx="1.3" fill="#D8D8D8"/>
<rect x="193.2" y="4" width="2.6" height="25" rx="1.3" fill="#D8D8D8"/>
<rect x="197.8" y="2" width="2.6" height="29" rx="1.3" fill="#D8D8D8"/>
<rect x="202.4" width="2.6" height="33" rx="1.3" fill="#D8D8D8"/>
<rect x="207" y="9" width="2.6" height="15" rx="1.3" fill="#D8D8D8"/>
<rect x="211.6" y="13" width="2.6" height="7" rx="1.3" fill="#D8D8D8"/>
<rect x="216.2" y="2" width="2.6" height="29" rx="1.3" fill="#D8D8D8"/>
<rect x="220.8" y="9.5" width="2.6" height="14" rx="1.3" fill="#D8D8D8"/>
<rect x="225.4" y="2.5" width="2.6" height="28" rx="1.3" fill="#D8D8D8"/>
<rect x="230" y="5" width="2.6" height="23" rx="1.3" fill="#D8D8D8"/>
<rect x="234.6" y="0.5" width="2.6" height="32" rx="1.3" fill="#D8D8D8"/>
<rect x="239.2" y="3" width="2.6" height="27" rx="1.3" fill="#D8D8D8"/>
<rect x="243.8" y="7.5" width="2.6" height="18" rx="1.3" fill="#D8D8D8"/>
<rect x="248.4" y="9.5" width="2.7" height="14" rx="1.35" fill="#D8D8D8"/>
</svg>
