<svg width="256" height="256" viewBox="0 0 256 256" fill="none" xmlns="http://www.w3.org/2000/svg">
<path d="M133.783 146.515C133.783 150.715 137.16 154.114 141.309 153.756C151.723 152.86 165.268 150.311 172.214 146.246C181.026 141.088 188.329 133.673 193.384 124.752C198.439 115.831 201.066 105.72 200.999 95.4449C200.931 85.1697 198.172 75.0952 193 66.2422C187.828 57.3892 180.428 50.0724 171.549 45.0333C162.67 39.9942 152.628 37.4119 142.441 37.5481C132.254 37.6843 122.283 40.5341 113.54 45.8087C111.148 51.7087 112.251 48.9722 107.635 55.5053C105.722 58.2132 104.86 57.3581 106.708 58.6582C107.321 59.0895 107.775 59.7084 108.04 60.41L110.743 67.5816C111.008 68.2832 111.451 68.922 112.109 69.2821C113.018 69.7801 113.867 69.986 114.668 70.1349C117.591 70.6779 122.172 70.8829 124.911 69.728C125.599 69.4377 126.317 69.1213 127.09 68.6552C131.84 65.7896 137.256 64.2413 142.791 64.1674C148.325 64.0934 153.781 65.4963 158.605 68.2339C163.428 70.9715 167.449 74.9466 170.258 79.7562C173.068 84.5658 174.567 90.039 174.604 95.6212C174.641 101.203 173.213 106.696 170.467 111.543C167.721 116.39 163.753 120.418 158.966 123.22C155.707 125.127 147.78 126.42 141.305 127.051C137.161 127.455 133.783 130.902 133.783 135.101V146.515Z" fill="#7446E9"/>
<path d="M104.296 79.3889C107.096 79.3889 109.366 82.6944 109.366 86.7727V200.589C109.366 204.667 107.096 207.973 104.296 207.973C101.496 207.973 99.2268 204.667 99.2268 200.589V86.7727C99.2268 82.6944 101.496 79.3889 104.296 79.3889Z" fill="#314299"/>
<path d="M87.1833 63.1152C89.9833 63.1152 92.2528 66.0392 92.2528 69.6468V222.863C92.2528 226.471 89.9833 229.395 87.1833 229.395C84.3832 229.395 82.1138 226.471 82.1138 222.863V69.6468C82.1138 66.0399 84.3832 63.1152 87.1833 63.1152Z" fill="#5E6DBA"/>
<path d="M69.6496 95.6624C72.2177 95.6624 74.2991 98.83 74.2991 102.738V186.228C74.2991 190.136 72.2177 193.303 69.6496 193.303C67.0815 193.303 65 190.136 65 186.228V102.738C65 98.83 67.0815 95.6624 69.6496 95.6624Z" fill="#7A87C6"/>
<path d="M121.409 111.936C124.209 111.936 126.478 114.199 126.478 116.99V165.688C126.478 168.48 124.209 170.742 121.409 170.742C118.609 170.742 116.339 168.48 116.339 165.688V116.99C116.339 114.199 118.609 111.936 121.409 111.936Z" fill="#1A2679"/>
<path d="M100.298 66.2919C99.8448 66.07 99.6278 65.5445 99.7928 65.0671L113.27 26.0666C113.571 25.1964 114.788 25.1606 115.14 26.0116L138.727 83.1466C139.079 83.9976 138.191 84.8311 137.364 84.4265L100.298 66.2919Z" fill="#7446E9"/>
</svg>
